#!OML:ASF E:\Mandelcareful walks\Project 1\Capture day 1\Session 1\Subject1.ASF
:FULLY-SPECIFIED
:DEGREES
2878
root -25.7209 16.8281 16.8773 907.992 -63.6091 1248.81
lowerback 0.378737 -2.13585 -9.25316
upperback 2.83341 -2.79866 -0.955071
thorax 3.13624 -1.65395 4.10515
lowerneck -15.784 -9.26249 -14.4603
upperneck 28.6446 -13.2042 9.08218
head 14.0141 -6.56122 3.63483
rclavicle 8.40859e-014 -2.32578e-014
rhumerus -34.4783 -16.2488 -76.4369
rradius 20.9896
rwrist 2.81328
rhand -8.83419 -31.159
rfingers 7.12502
rthumb 17.106 -60.426
lclavicle 8.40859e-014 -2.32578e-014
lhumerus -11.658 21.3294 69.3859
lradius 16.7987
lwrist -12.9505
lhand -25.6955 -14.9175
lfingers 7.12502
lthumb 0.839805 15.0606
rfemur -18.1024 -17.9005 16.7791
rtibia 59.7585
rfoot -11.9455 -19.4441
rtoes 25.4635
lfemur -4.73514 2.20584 -26.361
ltibia 24.4884
lfoot -18.2081 12.6569
ltoes 2.45526
2879
root -25.7753 16.828 16.8784 908.906 -63.0985 1247.7
lowerback 0.441369 -2.20814 -9.8386
upperback 2.79149 -2.90176 -1.07977
thorax 3.09935 -1.71792 4.29919
lowerneck -15.7557 -9.1408 -14.3539
upperneck 28.7241 -13.0185 8.89744
head 13.9882 -6.49845 3.58257
rclavicle -1.10189e-013 -1.09332e-014
rhumerus -34.5779 -15.794 -76.532
rradius 21.3176
rwrist 2.29584
rhand -9.06742 -31.0535
rfingers 7.12502
rthumb 16.8815 -60.3397
lclavicle -1.10189e-013 -1.09332e-014
lhumerus -11.7047 22.0459 69.1991
lradius 16.7962
lwrist -13.3663
lhand -25.7092 -15.786
lfingers 7.12502
lthumb 0.826645 14.1921
rfemur -18.3526 -18.2629 16.0894
rtibia 60.3035
rfoot -11.617 -19.7786
rtoes 25.8382
lfemur -4.3202 2.20507 -27.1113
ltibia 24.2748
lfoot -18.3691 13.0461
ltoes 3.20889
2880
root -25.8171 16.8422 16.878 908.5 -62.7155 1248.34
lowerback 0.472472 -2.31303 -9.70064
upperback 2.65315 -3.05051 -0.998148
thorax 2.95499 -1.77616 4.30793
lowerneck -15.7993 -9.15396 -14.317
upperneck 28.7508 -13.0438 8.86195
head 14.0065 -6.51113 3.55505
rclavicle -9.65348e-014 1.47101e-014
rhumerus -34.6841 -15.1723 -76.8137
rradius 21.7744
rwrist 1.61667
rhand -9.25966 -31.3788
rfingers 7.12502
rthumb 16.6965 -60.6808
lclavicle -9.65348e-014 1.47101e-014
lhumerus -11.7903 22.5379 68.9878
lradius 16.9444
lwrist -13.2939
lhand -25.7622 -15.6835
lfingers 7.12502
lthumb 0.775456 14.2948
rfemur -18.8631 -18.5372 16.5083
rtibia 60.6793
rfoot -11.0044 -20.4311
rtoes 25.5731
lfemur -4.35416 2.15472 -26.9382
ltibia 24.2073
lfoot -18.474 13.3608
ltoes 3.76991
2881
root -25.8576 16.8598 16.8749 908.398 -62.3472 1248.61
lowerback 0.532192 -2.39663 -9.71718
upperback 2.52696 -3.17346 -0.947899
thorax 2.81124 -1.82635 4.37169
lowerneck -15.935 -9.21566 -14.2283
upperneck 28.867 -13.1208 8.72375
head 14.0777 -6.54993 3.46418
rclavicle -8.53532e-015 6.4605e-015
rhumerus -34.7848 -14.4003 -77.1808
rradius 22.2944
rwrist 0.665561
rhand -9.40781 -31.9698
rfingers 7.12502
rthumb 16.5538 -61.2837
lclavicle -8.53532e-015 6.4605e-015
lhumerus -11.7698 22.8367 68.8844
lradius 16.9798
lwrist -13.1934
lhand -26.2508 -14.8139
lfingers 7.12502
lthumb 0.303556 15.1656
rfemur -19.2811 -18.8387 16.6643
rtibia 61.0232
rfoot -10.9431 -20.6379
rtoes 25.6788
lfemur -4.42831 2.14491 -26.8994
ltibia 24.136
lfoot -18.3686 13.6546
ltoes 3.65631
2882
root -25.9005 16.8668 16.8727 907.99 -62.0122 1249.29
lowerback 0.429037 -2.41415 -9.40647
upperback 2.41956 -3.18861 -0.848681
thorax 2.74562 -1.81878 4.3011
lowerneck -15.9438 -9.31386 -14.3636
upperneck 28.8567 -13.2686 8.83038
head 14.1188 -6.61562 3.49751
rclavicle 4.6528e-014 -3.03147e-014
rhumerus -34.9306 -13.918 -77.3604
rradius 22.7301
rwrist -0.260279
rhand -9.39605 -32.0661
rfingers 7.12502
rthumb 16.5652 -61.3791
lclavicle 4.6528e-014 -3.03147e-014
lhumerus -11.6592 23.0009 68.9852
lradius 16.9177
lwrist -13.2858
lhand -26.8624 -14.0257
lfingers 7.12502
lthumb -0.287142 15.9538
rfemur -19.6419 -18.9716 16.9626
rtibia 61.2132
rfoot -11.3137 -20.4868
rtoes 26.7659
lfemur -4.57986 2.17845 -26.6732
ltibia 24.2087
lfoot -18.4046 13.9808
ltoes 3.40659
2883
root -25.9482 16.8568 16.8721 908.894 -61.4696 1248.2
lowerback 0.509029 -2.59788 -10.1429
upperback 2.40806 -3.44306 -0.985117
thorax 2.76641 -1.96385 4.56046
lowerneck -16.2489 -9.07937 -13.8564
upperneck 28.9475 -12.9234 8.50536
head 14.0992 -6.44403 3.3448
rclavicle 5.75668e-014 7.7526e-015
rhumerus -34.7674 -13.1047 -77.8289
rradius 23.0556
rwrist -0.848364
rhand -9.30651 -31.8754
rfingers 7.12502
rthumb 16.6514 -61.1812
lclavicle 5.75668e-014 7.7526e-015
lhumerus -11.9413 23.4817 68.6879
lradius 17.1593
lwrist -12.9495
lhand -27.573 -13.3271
lfingers 7.12502
lthumb -0.973476 16.6504
rfemur -19.8451 -19.2234 16.181
rtibia 61.4919
rfoot -10.5238 -20.4978
rtoes 26.3398
lfemur -4.30554 2.20814 -27.4345
ltibia 24.1657
lfoot -18.6763 14.34
ltoes 3.27233
2884
root -26.0049 16.8579 16.8664 907.741 -60.9446 1249.25
lowerback 0.576865 -2.60575 -9.68912
upperback 2.47929 -3.45994 -0.872659
thorax 2.78203 -1.96571 4.42722
lowerneck -16.2681 -8.95406 -13.6223
upperneck 28.9288 -12.7316 8.29664
head 14.0292 -6.36257 3.2611
rclavicle 8.35517e-015 2.71341e-014
rhumerus -34.7485 -12.3575 -78.1429
rradius 23.6436
rwrist -1.69802
rhand -9.35552 -32.0025
rfingers 7.12502
rthumb 16.6042 -61.3122
lclavicle 8.35517e-015 2.71341e-014
lhumerus -12.0988 23.5549 68.7017
lradius 17.3727
lwrist -12.5974
lhand -28.2578 -12.4425
lfingers 7.12502
lthumb -1.63489 17.531
rfemur -19.8785 -19.6925 16.6392
rtibia 61.5758
rfoot -7.88798 -21.0671
rtoes 19.6564
lfemur -3.75769 2.31847 -27.0744
ltibia 24.0797
lfoot -19.0947 14.6463
ltoes 2.98899
2885
root -26.0612 16.8467 16.8559 908.715 -60.351 1248.12
lowerback 0.255206 -2.66388 -10.2944
upperback 2.54197 -3.49451 -1.07285
thorax 3.06336 -2.01237 4.53184
lowerneck -16.3559 -9.01434 -13.6789
upperneck 28.8922 -12.8541 8.47639
head 14.0698 -6.39703 3.31366
rclavicle -2.61402e-014 -6.26172e-015
rhumerus -34.48 -12.4756 -78.1829
rradius 23.6228
rwrist -1.78501
rhand -9.6272 -31.5579
rfingers 7.12502
rthumb 16.3426 -60.8893
lclavicle -2.61402e-014 -6.26172e-015
lhumerus -12.1469 23.414 68.6908
lradius 17.4594
lwrist -12.0436
lhand -28.5301 -12.4044
lfingers 7.12502
lthumb -1.89791 17.5669
rfemur -19.8349 -19.8664 15.6164
rtibia 61.6483
rfoot -7.99011 -20.4245
rtoes 19.4029
lfemur -3.50509 2.51803 -27.8708
ltibia 24.0802
lfoot -19.4941 14.8957
ltoes 3.11091
2886
root -26.1256 16.8483 16.8406 907.987 -59.8947 1248.66
lowerback 0.137013 -2.73783 -10.071
upperback 2.6805 -3.57435 -1.02625
thorax 3.27603 -2.06187 4.44171
lowerneck -16.4919 -8.91565 -13.7118
upperneck 28.9255 -12.7389 8.62656
head 14.1124 -6.33105 3.3983
rclavicle 8.15825e-014 3.27995e-015
rhumerus -34.4448 -11.879 -78.452
rradius 24.0111
rwrist -2.48183
rhand -9.21374 -30.5113
rfingers 7.12502
rthumb 16.7407 -59.8096
lclavicle 8.15825e-014 3.27995e-015
lhumerus -12.3126 23.7579 68.661
lradius 17.6069
lwrist -11.7454
lhand -28.1092 -13.4872
lfingers 7.12502
lthumb -1.49139 16.4873
rfemur -19.4611 -20.1954 15.5176
rtibia 61.5643
rfoot -7.59342 -19.9834
rtoes 18.3375
lfemur -3.00215 2.63149 -27.7499
ltibia 24.2015
lfoot -19.9441 15.2625
ltoes 3.60592
2887
root -26.1427 16.8673 16.8266 906.304 -59.5812 1250.87
lowerback 0.242589 -2.79446 -9.27182
upperback 2.56959 -3.67086 -0.688624
thorax 3.0806 -2.07677 4.35776
lowerneck -16.4026 -8.73756 -13.7865
upperneck 28.617 -12.568 9.07669
head 13.9783 -6.21143 3.62808
rclavicle 1.53188e-014 1.71949e-014
rhumerus -34.4838 -11.3218 -78.8155
rradius 24.6195
rwrist -3.2315
rhand -8.13544 -29.9852
rfingers 7.12502
rthumb 17.7785 -59.1925
lclavicle 1.53188e-014 1.71949e-014
lhumerus -12.4637 24.1097 68.7079
lradius 17.7856
lwrist -11.5948
lhand -27.8681 -14.018
lfingers 7.12502
lthumb -1.25849 15.9581
rfemur -19.8972 -19.9215 16.9209
rtibia 61.4513
rfoot -7.67875 -20.2629
rtoes 20.7637
lfemur -3.31755 2.65248 -26.5748
ltibia 24.3735
lfoot -19.9945 15.6071
ltoes 4.08513
2888
root -26.185 16.8682 16.8159 906.265 -58.9745 1251.02
lowerback 0.0917902 -2.77615 -9.28713
upperback 2.54895 -3.62993 -0.71398
thorax 3.13754 -2.0578 4.33422
lowerneck -16.694 -8.75963 -13.6
upperneck 28.852 -12.6213 8.96264
head 14.1255 -6.22322 3.53256
rclavicle 4.27387e-015 -6.36111e-015
rhumerus -34.5657 -10.9221 -79.1916
rradius 25.3211
rwrist -4.04856
rhand -8.09705 -30.5927
rfingers 7.12502
rthumb 17.8155 -59.7966
lclavicle 4.27387e-015 -6.36111e-015
lhumerus -12.6427 23.6569 68.8799
lradius 17.9749
lwrist -10.6878
lhand -28.0477 -13.9427
lfingers 7.12502
lthumb -1.43196 16.0322
rfemur -19.9834 -19.8299 16.6975
rtibia 61.4049
rfoot -8.33468 -19.4803
rtoes 23.8894
lfemur -3.3777 2.94679 -26.6271
ltibia 24.6244
lfoot -20.2303 15.811
ltoes 4.47539
